
<svg width="18px" height="18px" viewBox="0 0 18 18" version="1.1" xmlns="http://www.w3.org/2000/svg" xmlns:xlink="http://www.w3.org/1999/xlink">
    <g id="Symbols" stroke="none" stroke-width="1" fill="none" fill-rule="evenodd">
        <g id="Component/Button-withIcon" transform="translate(-26.000000, -18.000000)" fill="#191B39" fill-rule="nonzero">
            <g id="Button">
                <g id="e-add" transform="translate(26.000000, 18.000000)">
                    <path d="M17.1818182,8.18181818 L9.81818182,8.18181818 L9.81818182,0.818181818 C9.81818182,0.327272727 9.49090909,0 9,0 C8.50909091,0 8.18181818,0.327272727 8.18181818,0.818181818 L8.18181818,8.18181818 L0.818181818,8.18181818 C0.327272727,8.18181818 0,8.50909091 0,9 C0,9.49090909 0.327272727,9.81818182 0.818181818,9.81818182 L8.18181818,9.81818182 L8.18181818,17.1818182 C8.18181818,17.6727273 8.50909091,18 9,18 C9.49090909,18 9.81818182,17.6727273 9.81818182,17.1818182 L9.81818182,9.81818182 L17.1818182,9.81818182 C17.6727273,9.81818182 18,9.49090909 18,9 C18,8.50909091 17.6727273,8.18181818 17.1818182,8.18181818 Z" id="Shape"></path>
                </g>
            </g>
        </g>
    </g>
</svg>
